# xmcd
#
# Track frame offsets:
# 150
# 14081
# 31554
# 44353
# 56235
# 81191
# 88165
# 98749
# 114791
# 129467
# 141197
# 153083
# 169866
# 182146
# 200586
# 214331
#
# Disc length: 3031 seconds
#
#
# Revision: 2
# Processed by: cddbd v1.5.1PL2 Copyright (c) Steve Scherf et al.
# Submitted via: FreeRIP 2.944 
#
DISCID=d90bd510
DTITLE=FLEETWOOD MAC - THE HITS OF FLEETWOOD MAC
DYEAR=1900
DGENRE=
TTITLE0=ALBATROSS
TTITLE1=NEED YOUR LOVE SO BAD
TTITLE2=BLACK MAGIC WOMAN
TTITLE3=COMING HOME
TTITLE4=JUST THE BLUES
TTITLE5=JIGSAW PUZZLE BLUES
TTITLE6=STOP MESSIN`ROUND
TTITLE7=LET ME GO
TTITLE8=I`D RATHER GO BLIND
TTITLE9=THE BIG BOOT
TTITLE10=RAMBLING PONY
TTITLE11=DOCTOR BROWN
TTITLE12=LOOKING FOR SOMEBODY
TTITLE13=MERRY GO ROUND
TTITLE14=CRAZY `BOUT YOU BABY
TTITLE15=I BELIVE MY TIME AIN`T LONG
EXTD=
EXTT0=
EXTT1=
EXTT2=
EXTT3=
EXTT4=
EXTT5=
EXTT6=
EXTT7=
EXTT8=
EXTT9=
EXTT10=
EXTT11=
EXTT12=
EXTT13=
EXTT14=
EXTT15=
PLAYORDER=
